HIERARCHY
ROOT hips
{
	OFFSET 0.000000 104.274902 0.000000
	CHANNELS 6 Xposition Yposition Zposition Xrotation Yrotation Zrotation
	JOINT spine
	{
		OFFSET 0.000000 10.181549 0.131524
		CHANNELS 6 Xposition Yposition Zposition Xrotation Yrotation Zrotation
		JOINT chest
		{
			OFFSET 0.000000 9.893990 -1.470706
			CHANNELS 3 Xrotation Yrotation Zrotation
			JOINT upperChest
			{
				OFFSET 0.000000 9.220787 -1.370637
				CHANNELS 3 Xrotation Yrotation Zrotation
				JOINT neck
				{
					OFFSET 0.000000 16.740372 -2.049022
					CHANNELS 6 Xposition Yposition Zposition Xrotation Yrotation Zrotation
					JOINT head
					{
						OFFSET 0.000000 9.617859 1.684976
						CHANNELS 6 Xposition Yposition Zposition Xrotation Yrotation Zrotation
						JOINT headEnd
						{
							OFFSET 0.000000 22.037384 7.501072
							CHANNELS 6 Xposition Yposition Zposition Xrotation Yrotation Zrotation
							End Site
							{
								OFFSET 0.000000 23.106567 -2.828246
							}
						}
					}
				}
				JOINT rightShoulder
				{
					OFFSET -4.570000 11.014877 -2.160840
					CHANNELS 6 Xposition Yposition Zposition Xrotation Yrotation Zrotation
					JOINT rightUpperArm
					{
						OFFSET -10.592867 -0.524796 -2.232105
						CHANNELS 3 Xrotation Yrotation Zrotation
						JOINT rightLowerArm
						{
							OFFSET -27.841497 0.000000 -0.000002
							CHANNELS 3 Xrotation Yrotation Zrotation
							JOINT rightHand
							{
								OFFSET -28.328812 0.000000 -0.000001
								CHANNELS 3 Xrotation Yrotation Zrotation
								JOINT rightThumbProximal
								{
									OFFSET -2.464798 -1.573990 2.681911
									CHANNELS 6 Xposition Yposition Zposition Xrotation Yrotation Zrotation
									JOINT rightThumbIntermediate
									{
										OFFSET -3.244781 -1.873383 1.873376
										CHANNELS 3 Xrotation Yrotation Zrotation
										JOINT rightThumbDistal
										{
											OFFSET -2.646263 -1.527817 1.527818
											CHANNELS 6 Xposition Yposition Zposition Xrotation Yrotation Zrotation
											JOINT rightHandThumb4
											{
												OFFSET -1.994591 -1.151581 1.151575
												CHANNELS 6 Xposition Yposition Zposition Xrotation Yrotation Zrotation
												End Site
												{
													OFFSET -1.860176 -1.142715 1.365483
												}
											}
										}
									}
								}
								JOINT rightIndexProximal
								{
									OFFSET -9.108299 -0.517883 2.259803
									CHANNELS 6 Xposition Yposition Zposition Xrotation Yrotation Zrotation
									JOINT rightIndexIntermediate
									{
										OFFSET -3.699997 0.000000 0.000000
										CHANNELS 3 Xrotation Yrotation Zrotation
										JOINT rightIndexDistal
										{
											OFFSET -2.850006 0.000000 0.000000
											CHANNELS 3 Xrotation Yrotation Zrotation
											JOINT rightHandIndex4
											{
												OFFSET -2.772194 0.000000 0.000000
												CHANNELS 3 Xrotation Yrotation Zrotation
												End Site
												{
													OFFSET -2.772202 0.000000 -0.000484
												}
											}
										}
									}
								}
								JOINT rightMiddleProximal
								{
									OFFSET -9.532501 0.000000 -0.000000
									CHANNELS 6 Xposition Yposition Zposition Xrotation Yrotation Zrotation
									JOINT rightMiddleIntermediate
									{
										OFFSET -3.699997 0.000000 0.000000
										CHANNELS 3 Xrotation Yrotation Zrotation
										JOINT rightMiddleDistal
										{
											OFFSET -2.949997 0.000000 0.000000
											CHANNELS 3 Xrotation Yrotation Zrotation
											JOINT rightHandMiddle4
											{
												OFFSET -2.946594 0.000000 0.000000
												CHANNELS 3 Xrotation Yrotation Zrotation
												End Site
												{
													OFFSET -2.946602 0.000000 -0.000982
												}
											}
										}
									}
								}
								JOINT rightRingProximal
								{
									OFFSET -9.103600 -0.043106 -1.865100
									CHANNELS 6 Xposition Yposition Zposition Xrotation Yrotation Zrotation
									JOINT rightRingIntermediate
									{
										OFFSET -3.379303 0.000000 0.000000
										CHANNELS 3 Xrotation Yrotation Zrotation
										JOINT rightRingDistal
										{
											OFFSET -2.889694 0.000000 0.000000
											CHANNELS 3 Xrotation Yrotation Zrotation
											JOINT rightHandRing4
											{
												OFFSET -2.638802 0.000000 0.000000
												CHANNELS 3 Xrotation Yrotation Zrotation
												End Site
												{
													OFFSET -2.638802 0.000000 0.004218
												}
											}
										}
									}
								}
								JOINT rightLittleProximal
								{
									OFFSET -8.076698 -0.486725 -3.806299
									CHANNELS 6 Xposition Yposition Zposition Xrotation Yrotation Zrotation
									JOINT rightLittleIntermediate
									{
										OFFSET -3.600006 0.000000 0.000000
										CHANNELS 3 Xrotation Yrotation Zrotation
										JOINT rightLittleDistal
										{
											OFFSET -2.099998 0.000000 0.000000
											CHANNELS 3 Xrotation Yrotation Zrotation
											JOINT rightHandPinky4
											{
												OFFSET -2.115791 0.000000 0.000000
												CHANNELS 3 Xrotation Yrotation Zrotation
												End Site
												{
													OFFSET -2.115799 0.000000 0.000174
												}
											}
										}
									}
								}
							}
						}
					}
				}
				JOINT leftShoulder
				{
					OFFSET 4.570400 11.014679 -2.160816
					CHANNELS 6 Xposition Yposition Zposition Xrotation Yrotation Zrotation
					JOINT leftUpperArm
					{
						OFFSET 10.592373 -0.524597 -2.232116
						CHANNELS 3 Xrotation Yrotation Zrotation
						JOINT leftLowerArm
						{
							OFFSET 27.841488 0.000000 0.000001
							CHANNELS 3 Xrotation Yrotation Zrotation
							JOINT leftHand
							{
								OFFSET 28.328808 0.000000 -0.000000
								CHANNELS 3 Xrotation Yrotation Zrotation
								JOINT leftThumbProximal
								{
									OFFSET 2.466103 -1.576202 2.681698
									CHANNELS 6 Xposition Yposition Zposition Xrotation Yrotation Zrotation
									JOINT leftThumbIntermediate
									{
										OFFSET 3.243317 -1.872528 1.872530
										CHANNELS 3 Xrotation Yrotation Zrotation
										JOINT leftThumbDistal
										{
											OFFSET 2.647881 -1.528763 1.528754
											CHANNELS 6 Xposition Yposition Zposition Xrotation Yrotation Zrotation
											JOINT leftHandThumb4
											{
												OFFSET 1.998924 -1.154083 1.154080
												CHANNELS 6 Xposition Yposition Zposition Xrotation Yrotation Zrotation
												End Site
												{
													OFFSET 1.884041 -1.149155 1.337651
												}
											}
										}
									}
								}
								JOINT leftIndexProximal
								{
									OFFSET 9.109299 -0.518005 2.259900
									CHANNELS 6 Xposition Yposition Zposition Xrotation Yrotation Zrotation
									JOINT leftIndexIntermediate
									{
										OFFSET 3.699997 0.000000 0.000000
										CHANNELS 3 Xrotation Yrotation Zrotation
										JOINT leftIndexDistal
										{
											OFFSET 2.850006 0.000000 0.000000
											CHANNELS 3 Xrotation Yrotation Zrotation
											JOINT leftHandIndex4
											{
												OFFSET 2.774895 0.000000 0.000000
												CHANNELS 3 Xrotation Yrotation Zrotation
												End Site
												{
													OFFSET 2.774902 0.000000 -0.000072
												}
											}
										}
									}
								}
								JOINT leftMiddleProximal
								{
									OFFSET 9.533401 0.000000 0.000000
									CHANNELS 6 Xposition Yposition Zposition Xrotation Yrotation Zrotation
									JOINT leftMiddleIntermediate
									{
										OFFSET 3.699997 0.000000 0.000000
										CHANNELS 3 Xrotation Yrotation Zrotation
										JOINT leftMiddleDistal
										{
											OFFSET 2.949997 0.000000 0.000000
											CHANNELS 3 Xrotation Yrotation Zrotation
											JOINT leftHandMiddle4
											{
												OFFSET 2.952896 0.000000 0.000000
												CHANNELS 3 Xrotation Yrotation Zrotation
												End Site
												{
													OFFSET 2.952904 0.000000 0.000165
												}
											}
										}
									}
								}
								JOINT leftRingProximal
								{
									OFFSET 9.104500 -0.042999 -1.865101
									CHANNELS 6 Xposition Yposition Zposition Xrotation Yrotation Zrotation
									JOINT leftRingIntermediate
									{
										OFFSET 3.149994 0.000000 0.000000
										CHANNELS 3 Xrotation Yrotation Zrotation
										JOINT leftRingDistal
										{
											OFFSET 2.950005 0.000000 0.000000
											CHANNELS 3 Xrotation Yrotation Zrotation
											JOINT leftHandRing4
											{
												OFFSET 2.644302 0.000000 0.000000
												CHANNELS 3 Xrotation Yrotation Zrotation
												End Site
												{
													OFFSET 2.644302 0.000000 0.000083
												}
											}
										}
									}
								}
								JOINT leftLittleProximal
								{
									OFFSET 8.077805 -0.486893 -3.806302
									CHANNELS 6 Xposition Yposition Zposition Xrotation Yrotation Zrotation
									JOINT leftLittleIntermediate
									{
										OFFSET 3.600006 0.000000 0.000000
										CHANNELS 3 Xrotation Yrotation Zrotation
										JOINT leftLittleDistal
										{
											OFFSET 2.099998 0.000000 0.000000
											CHANNELS 3 Xrotation Yrotation Zrotation
											JOINT leftHandPinky4
											{
												OFFSET 2.125496 0.000000 0.000000
												CHANNELS 3 Xrotation Yrotation Zrotation
												End Site
												{
													OFFSET 2.125504 0.000000 -0.001254
												}
											}
										}
									}
								}
							}
						}
					}
				}
			}
		}
	}
	JOINT rightUpperLeg
	{
		OFFSET -8.207800 -6.751701 -1.599544
		CHANNELS 6 Xposition Yposition Zposition Xrotation Yrotation Zrotation
		JOINT rightLowerLeg
		{
			OFFSET 0.000004 -44.370152 0.345934
			CHANNELS 3 Xrotation Yrotation Zrotation
			JOINT rightFoot
			{
				OFFSET 0.000004 -44.423664 -3.043535
				CHANNELS 3 Xrotation Yrotation Zrotation
				JOINT rightToes
				{
					OFFSET 0.000001 -8.728691 10.710592
					CHANNELS 3 Xrotation Yrotation Zrotation
					JOINT rightToesEnd
					{
						OFFSET 0.000000 -0.000665 9.278101
						CHANNELS 3 Xrotation Yrotation Zrotation
						End Site
						{
							OFFSET 0.000000 -0.000665 9.278103
						}
					}
				}
			}
		}
	}
	JOINT leftUpperLeg
	{
		OFFSET 8.207800 -6.751701 -1.599544
		CHANNELS 6 Xposition Yposition Zposition Xrotation Yrotation Zrotation
		JOINT leftLowerLeg
		{
			OFFSET 0.000004 -44.370037 0.346940
			CHANNELS 3 Xrotation Yrotation Zrotation
			JOINT leftFoot
			{
				OFFSET 0.000004 -44.423611 -3.044388
				CHANNELS 3 Xrotation Yrotation Zrotation
				JOINT leftToes
				{
					OFFSET 0.000001 -8.728690 10.710592
					CHANNELS 3 Xrotation Yrotation Zrotation
					JOINT leftToesEnd
					{
						OFFSET 0.000000 -0.000680 9.278101
						CHANNELS 3 Xrotation Yrotation Zrotation
						End Site
						{
							OFFSET 0.000000 -0.000680 9.278101
						}
					}
				}
			}
		}
	}
}
MOTION
Frames: 4
Frame Time: 0.033333
-0.247292 94.603333 2.308867 -2.706202 -11.224398 3.741505 -0.000001 10.181558 0.131523 0.555981 -7.551820 -5.714195 7.908575 -1.284991 -2.368043 7.875016 -1.255871 -2.482602 -0.000001 16.740355 -2.049025 6.175483 3.748883 -0.493829 -0.000003 9.617845 1.684978 0.028956 20.970539 -6.301751 0.000001 22.037369 7.501072 -0.000001 -0.000000 -0.000000 -4.570004 11.014858 -2.160840 1.385256 6.688661 8.299604 13.361436 10.897785 57.910456 0.000168 113.164254 -0.000099 2.607459 -25.401634 7.928421 -2.464800 -1.573988 2.681919 -3.430854 -18.334251 -12.490473 5.383117 -16.953978 -0.794241 -2.646257 -1.527825 1.527812 -0.770283 -5.341377 -2.677146 -1.994598 -1.151582 1.151575 0.000001 -0.000006 -0.000000 -9.108300 -0.517878 2.259812 0.152289 -1.450241 11.990063 0.152320 -1.450246 11.990063 0.152304 -1.450241 11.990063 -0.000002 -0.000004 0.000002 -9.532500 -0.000002 0.000014 0.131361 -1.347911 11.132513 0.185025 -1.596515 13.220862 0.196111 -1.642914 13.612459 0.000000 0.000003 0.000002 -9.103606 -0.043090 -1.865085 0.175428 -1.555117 12.871894 0.246992 -1.840306 15.286930 0.261749 -1.893433 15.739785 -0.000004 0.000006 0.000000 -8.076691 -0.486726 -3.806289 0.325176 -2.105458 17.557966 0.325184 -2.105468 17.557957 0.325185 -2.105467 17.557956 -0.000003 0.000002 0.000003 4.570400 11.014674 -2.160815 1.029783 -8.229564 0.848625 -8.225369 -22.664533 -70.647481 -0.000010 -18.475190 -0.000002 -0.610875 4.639463 -1.244637 2.466094 -1.576209 2.681696 -3.918386 21.714418 13.619391 4.619959 16.283320 1.366830 2.647888 -1.528756 1.528748 0.085971 8.981034 3.251613 1.998935 -1.154083 1.154078 0.000002 0.000000 0.000005 9.109308 -0.518009 2.259898 0.083016 1.068263 -8.888636 0.083018 1.068286 -8.888601 0.083032 1.068266 -8.888631 0.000001 -0.000001 0.000000 9.533396 0.000007 -0.000004 0.094848 1.141363 -9.502402 0.134487 1.356961 -11.319706 0.142136 1.394652 -11.638472 -0.000001 0.000001 0.000002 9.104508 -0.043001 -1.865103 0.160997 1.483270 -12.389852 0.226681 1.755755 -14.714302 0.240250 1.806528 -15.150205 0.000004 0.000003 -0.000001 8.077816 -0.486882 -3.806305 1.588221 6.003757 -17.658220 0.342253 -1.912410 -18.565900 0.341268 2.144891 -18.079999 -0.000005 -0.000003 -0.000000 -8.207801 -6.751698 -1.599541 -36.526141 8.014372 11.471089 74.151245 -9.381754 -9.889445 17.580787 -5.188344 7.389932 -19.958375 -0.000006 0.000000 -0.000001 0.000001 -0.000001 8.207801 -6.751697 -1.599544 -9.413386 8.400297 -9.488516 42.380767 10.018445 3.744810 -30.344338 1.739772 -1.468461 -2.854849 -0.000004 -0.000001 -0.000000 -0.000000 0.000000 
-0.334190 94.953949 2.546513 -3.348148 -12.053639 3.907750 0.000000 10.181550 0.131524 1.916876 -4.451781 -4.272995 8.672042 -0.925197 -3.759364 8.642113 -0.920649 -3.829458 -0.000000 16.740360 -2.049017 5.563725 3.227702 0.374550 -0.000001 9.617866 1.684977 -0.427088 18.907301 -5.571174 -0.000000 22.037384 7.501075 0.000001 -0.000000 -0.000000 -4.570001 11.014872 -2.160835 1.364198 6.410868 8.334848 3.658686 17.076038 55.459316 0.000242 109.650675 -0.000191 3.763649 -22.107220 9.948860 -2.464796 -1.574001 2.681913 -3.430857 -18.334256 -12.490468 5.383113 -16.953981 -0.794245 -2.646272 -1.527808 1.527813 -0.770286 -5.341375 -2.677143 -1.994606 -1.151571 1.151578 -0.000003 -0.000002 0.000003 -9.108296 -0.517863 2.259809 0.152287 -1.450241 11.990068 0.152321 -1.450246 11.990062 0.152309 -1.450246 11.990067 0.000001 0.000004 0.000005 -9.532502 0.000003 -0.000002 0.131357 -1.347914 11.132514 0.185025 -1.596514 13.220863 0.196114 -1.642912 13.612460 0.000004 -0.000003 0.000002 -9.103602 -0.043090 -1.865095 0.175427 -1.555116 12.871894 0.246995 -1.840307 15.286926 0.261740 -1.893433 15.739783 0.000002 -0.000001 0.000000 -8.076706 -0.486726 -3.806299 0.325175 -2.105458 17.557971 0.325181 -2.105473 17.557957 0.325184 -2.105469 17.557961 -0.000002 0.000001 0.000000 4.570400 11.014701 -2.160813 1.203004 -9.015766 2.827656 1.465485 -22.229006 -66.437605 -0.000001 -35.074367 0.000007 -0.255752 5.491845 -1.191522 2.466107 -1.576198 2.681702 -3.918390 21.714420 13.619393 4.619952 16.283323 1.366821 2.647887 -1.528758 1.528749 0.085968 8.981035 3.251616 1.998922 -1.154092 1.154074 -0.000005 0.000003 -0.000002 9.109303 -0.518020 2.259903 0.083013 1.068265 -8.888637 0.083019 1.068288 -8.888601 0.083031 1.068266 -8.888630 0.000003 -0.000002 0.000001 9.533400 0.000011 0.000003 0.094842 1.141365 -9.502405 0.134485 1.356960 -11.319706 0.142131 1.394651 -11.638470 0.000001 0.000000 -0.000001 9.104494 -0.042999 -1.865100 0.160996 1.483273 -12.389855 0.226678 1.755756 -14.714299 0.240243 1.806528 -15.150207 -0.000002 0.000001 -0.000003 8.077801 -0.486898 -3.806301 1.588219 6.003757 -17.658221 0.342257 -1.912408 -18.565900 0.341270 2.144891 -18.079996 0.000001 -0.000002 0.000001 -8.207800 -6.751706 -1.599537 -38.374356 4.917385 10.039401 75.625712 -9.288408 -9.888889 19.865784 -6.326873 7.720480 -16.455278 -0.000002 -0.000002 -0.000003 -0.000001 -0.000000 8.207798 -6.751702 -1.599543 -7.305971 11.185065 -9.330377 40.777640 8.508465 4.625766 -29.988502 0.846609 -1.554288 -3.332200 -0.000001 0.000001 -0.000000 -0.000000 0.000000 
-0.468904 96.243881 2.450492 -3.954440 -12.689908 3.732179 -0.000001 10.181545 0.131522 4.583351 -0.508138 -1.758436 8.826013 -0.397839 -5.378111 8.825795 -0.445604 -5.377389 0.000002 16.740376 -2.049019 5.206239 2.392957 1.390369 -0.000001 9.617846 1.684978 0.247011 15.439398 -4.879141 0.000001 22.037384 7.501063 0.000001 0.000001 0.000000 -4.570002 11.014893 -2.160838 1.326715 6.108739 8.233936 -4.973276 22.848555 55.922348 0.000391 100.691496 -0.000314 6.192647 -22.146767 12.432005 -2.464788 -1.573990 2.681905 -3.430851 -18.334255 -12.490472 5.383114 -16.953978 -0.794242 -2.646258 -1.527808 1.527821 -0.770286 -5.341380 -2.677146 -1.994597 -1.151574 1.151587 -0.000004 -0.000003 -0.000000 -9.108289 -0.517880 2.259795 0.152289 -1.450240 11.990067 0.152316 -1.450251 11.990063 0.152306 -1.450245 11.990066 0.000002 0.000001 0.000000 -9.532491 0.000017 -0.000008 0.131362 -1.347913 11.132514 0.185023 -1.596516 13.220862 0.196115 -1.642905 13.612458 0.000001 0.000000 0.000001 -9.103609 -0.043105 -1.865111 0.175430 -1.555119 12.871897 0.246993 -1.840308 15.286930 0.261746 -1.893432 15.739788 0.000001 0.000003 -0.000000 -8.076684 -0.486709 -3.806307 0.325176 -2.105455 17.557973 0.325182 -2.105470 17.557957 0.325183 -2.105464 17.557961 -0.000001 -0.000001 -0.000001 4.570401 11.014685 -2.160814 1.312110 -9.100547 4.858162 11.939186 -21.038350 -61.624378 0.000007 -53.242370 -0.000003 1.229520 5.171929 -1.313934 2.466098 -1.576203 2.681698 -3.918386 21.714418 13.619389 4.619958 16.283320 1.366824 2.647889 -1.528738 1.528750 0.085971 8.981036 3.251612 1.998917 -1.154096 1.154071 0.000004 0.000002 0.000003 9.109282 -0.518008 2.259901 0.083016 1.068262 -8.888637 0.083013 1.068286 -8.888602 0.083030 1.068267 -8.888629 -0.000000 -0.000001 0.000001 9.533400 0.000007 -0.000003 0.094845 1.141364 -9.502405 0.134485 1.356960 -11.319705 0.142130 1.394650 -11.638472 0.000000 0.000001 0.000000 9.104477 -0.042995 -1.865100 0.160996 1.483272 -12.389853 0.226678 1.755754 -14.714300 0.240244 1.806527 -15.150207 -0.000001 0.000001 0.000000 8.077801 -0.486888 -3.806303 1.588222 6.003757 -17.658218 0.342256 -1.912410 -18.565900 0.341269 2.144890 -18.079997 0.000003 -0.000002 -0.000002 -8.207801 -6.751721 -1.599545 -37.423173 0.634117 7.388556 72.198050 -9.217510 -9.859442 16.518000 -7.507232 4.639675 -17.657280 -0.000011 0.000006 -0.000001 -0.000000 0.000000 8.207800 -6.751707 -1.599544 -5.043385 13.705696 -9.360180 37.777711 5.719938 6.329281 -26.328214 0.612133 -1.432508 -4.672872 -0.000001 0.000001 0.000000 -0.000000 0.000000 
-0.705478 97.903709 2.054619 -4.123907 -12.572167 3.143947 0.000000 10.181537 0.131524 7.428217 3.497490 0.926504 8.455212 0.191364 -6.543717 8.507034 0.085209 -6.474200 -0.000001 16.740372 -2.049023 5.356321 1.371978 2.319340 -0.000003 9.617847 1.684972 2.476984 11.069345 -4.285166 0.000001 22.037338 7.501079 -0.000001 0.000000 0.000000 -4.570002 11.014875 -2.160845 1.337265 6.276974 8.182567 -13.865432 26.766376 59.397210 -0.000549 85.197744 0.000602 7.686069 -26.613742 14.145514 -2.464804 -1.574001 2.681902 -3.430856 -18.334255 -12.490469 5.383118 -16.953983 -0.794239 -2.646263 -1.527825 1.527821 -0.770285 -5.341377 -2.677144 -1.994593 -1.151585 1.151571 0.000005 -0.000007 -0.000002 -9.108294 -0.517865 2.259810 0.152289 -1.450243 11.990068 0.152317 -1.450250 11.990063 0.152305 -1.450241 11.990063 0.000002 0.000003 -0.000000 -9.532502 0.000016 -0.000006 0.131357 -1.347914 11.132516 0.185025 -1.596516 13.220865 0.196114 -1.642907 13.612458 0.000002 0.000002 0.000001 -9.103605 -0.043092 -1.865102 0.175425 -1.555121 12.871896 0.246993 -1.840311 15.286932 0.261743 -1.893435 15.739785 -0.000002 0.000004 0.000001 -8.076706 -0.486724 -3.806304 0.325176 -2.105458 17.557971 0.325181 -2.105468 17.557957 0.325185 -2.105471 17.557961 -0.000001 -0.000001 0.000001 4.570399 11.014700 -2.160821 1.317426 -8.525618 6.551140 19.361758 -20.771123 -57.551276 -0.000013 -67.791724 0.000007 3.372062 4.479767 -1.465028 2.466106 -1.576198 2.681706 -3.918396 21.714413 13.619390 4.619953 16.283314 1.366823 2.647884 -1.528758 1.528746 0.085968 8.981040 3.251621 1.998936 -1.154087 1.154081 0.000000 0.000004 0.000001 9.109297 -0.518006 2.259902 0.083012 1.068262 -8.888637 0.083016 1.068289 -8.888601 0.083032 1.068267 -8.888631 -0.000000 -0.000004 -0.000000 9.533398 0.000011 0.000006 0.094841 1.141367 -9.502403 0.134485 1.356963 -11.319708 0.142128 1.394651 -11.638471 -0.000000 0.000001 -0.000001 9.104498 -0.042998 -1.865100 0.160993 1.483272 -12.389852 0.226677 1.755755 -14.714297 0.240242 1.806528 -15.150207 0.000000 0.000001 0.000000 8.077808 -0.486888 -3.806304 1.588217 6.003758 -17.658220 0.342254 -1.912412 -18.565900 0.341269 2.144893 -18.080001 -0.000002 -0.000002 -0.000000 -8.207798 -6.751715 -1.599534 -33.909854 -4.502057 4.444306 63.728957 -9.292966 -9.834981 9.099269 -6.047294 0.558349 -17.492154 0.000001 0.000001 0.000001 0.000000 0.000000 8.207800 -6.751709 -1.599544 -8.967458 14.926701 -7.617676 42.206597 3.649071 7.719082 -14.173361 0.968879 -5.739817 -13.199396 -0.055816 2.349828 0.000000 0.000000 0.000000 
